<svg id="Calque_1" data-name="Calque 1" xmlns="http://www.w3.org/2000/svg" viewBox="0 0 200 200"><defs><style>.cls-1{fill:none;}.cls-2{fill:#18215b;}.cls-3{fill:#fff;}.cls-4{fill:#1a235c;}</style></defs><title>Plan de travail 1</title><ellipse class="cls-1" cx="100.07" cy="100" rx="141.32" ry="141.42"/><path class="cls-2" d="M130.81,153.08v1.12q0,18.83,0,37.64c0,1.31.19,1.12-1.07,1.12H70.55c-.26,0-.53,0-.8,0a.19.19,0,0,1-.2-.19c0-.24,0-.48,0-.72v-38a2.65,2.65,0,0,0-.07-.91c-1.49.8-2.9,1.65-4.32,2.46s-2.86,1.66-4.29,2.48-2.85,1.65-4.28,2.47l-4.36,2.52-4.28,2.48L43.64,168l-4.28,2.48L35.08,173a1.78,1.78,0,0,1-.47-.67l-19.6-34q-5.1-8.86-10.21-17.71l-.2-.35c-.2-.37-.2-.37.19-.6l.55-.32L38,100.52c.28-.16.55-.32.83-.5-.14-.27-.41-.34-.63-.47L21.72,90,5.13,80.46A2.48,2.48,0,0,1,4.45,80c0-.09.07-.19.11-.28C5.7,77.61,34.59,27.64,35,27a2.31,2.31,0,0,1,.75.38l18,10.42,14.86,8.58a2.27,2.27,0,0,0,.78.38,2.73,2.73,0,0,0,.06-.89V8.23a2,2,0,0,1,.11-1.17,4.12,4.12,0,0,1,1.11,0h59c1.22,0,1-.16,1,1.07V45.89c0,.28,0,.57,0,.94l.82-.44,12.64-7.3,20.25-11.7.56-.32a.23.23,0,0,1,.34.08l.32.55,7.94,13.77,21.75,37.69c.16.27.31.55.49.87l-8.68,5-8.57,5-8.64,5c-2.84,1.65-5.7,3.28-8.6,5l.78.46,32.9,19c1,.57.89.36.33,1.33q-14.83,25.74-29.69,51.46a2.13,2.13,0,0,1-.51.75l-11.47-6.62c-3.8-2.2-7.59-4.4-11.4-6.59S134.77,155.35,130.81,153.08Z"/><path class="cls-3" d="M102.73,67.77s-.07.09-.07.14c-.13,11-.39,22-.43,33a1.17,1.17,0,0,0,0,.2.5.5,0,0,0,.4-.07,88.58,88.58,0,0,1,8.75-2.72c2.62-.7,5.24-1.38,7.86-2.09a33.35,33.35,0,0,0,4.23-1.42,12.3,12.3,0,0,0,1.84-.95,5,5,0,0,0,1.21-1,2.37,2.37,0,0,0,.56-1.62,4.94,4.94,0,0,0-1.11-3,6.54,6.54,0,0,0-4.53-2.55c-1.59-.17-3.19-.17-4.79-.23a26.75,26.75,0,0,1-4.19-.48,8.57,8.57,0,0,1-3-1.29,27.31,27.31,0,0,1-2.93-2.34,1.61,1.61,0,0,1-.22-.23.56.56,0,0,1,.13-.89,2.78,2.78,0,0,1,.86-.39,20.37,20.37,0,0,1,3.45-.65l2-.25a8.13,8.13,0,0,0,2.57-.82c.33-.17.67-.33,1-.48a2.69,2.69,0,0,1,2.32,0,11,11,0,0,1,1.26.68c.34.2.66.44,1,.67a13.39,13.39,0,0,0,2,1.17,23.29,23.29,0,0,1,4.87,3,13.38,13.38,0,0,1,2.85,3.11,8.71,8.71,0,0,1,1.45,5.22,9.16,9.16,0,0,1-1.18,4,11,11,0,0,1-4.45,4.35,36.28,36.28,0,0,1-7.25,2.88c-2.61.75-5.26,1.32-7.9,1.92-1.35.31-2.69.65-4,1a.64.64,0,0,0-.36.17c0,.24.25.32.4.45a27,27,0,0,1,3,2.89,15.83,15.83,0,0,1,3.33,5.77,18.31,18.31,0,0,1,.9,5.5,10.05,10.05,0,0,1-2.63,6.92,16.64,16.64,0,0,1-2.47,2.27,34.84,34.84,0,0,1-3.39,2.24l-.58.36a1.75,1.75,0,0,0,.54.45,29,29,0,0,1,3.3,2.65,17.21,17.21,0,0,1,1.77,2,12.29,12.29,0,0,1,2.61,6.92,8.16,8.16,0,0,1-1.12,4.59,13.81,13.81,0,0,1-2.74,3.3,34.79,34.79,0,0,1-3.3,2.65c-1.21.87-2.44,1.72-3.65,2.59-.2.13-.38.28-.55.41,0,.25.17.36.28.49a27.36,27.36,0,0,1,2.6,3.73,13.74,13.74,0,0,1,1.62,4.56,4.45,4.45,0,0,1-.5,3,5.12,5.12,0,0,1-.41-1.45c-.12-.55-.21-1.1-.33-1.65a6.87,6.87,0,0,0-.6-1.64,16,16,0,0,0-3.5-4.21c-.15.07-.13.21-.13.33,0,.91,0,1.82-.06,2.72,0,2.24,0,4.48-.05,6.72,0,.21,0,.42,0,.63s0,.23-.18.23H99.3a.15.15,0,0,1-.15-.15c0-.24,0-.48,0-.72l-.06-5.68c0-1.19,0-2.39,0-3.59a1.75,1.75,0,0,0,0-.4.12.12,0,0,0-.19-.06l-.13.1a21.13,21.13,0,0,0-2.59,2.92,9,9,0,0,0-1.49,3.59c-.1.57-.21,1.15-.34,1.72,0,.2-.12.4-.2.66a3.69,3.69,0,0,1-.58-1.87,7.18,7.18,0,0,1,.4-2.75,16.79,16.79,0,0,1,2-4.14c.57-.87,1.2-1.7,1.8-2.54.1-.15.21-.3.31-.43-.06-.2-.22-.26-.35-.35-1.81-1.32-3.65-2.59-5.4-4a27,27,0,0,1-2.29-2,16.78,16.78,0,0,1-1.43-1.61,8.58,8.58,0,0,1-1.56-8,13.61,13.61,0,0,1,3.53-6.08,27.69,27.69,0,0,1,3.7-3,2.2,2.2,0,0,0,.68-.54c-.15-.22-.39-.28-.58-.4a31.51,31.51,0,0,1-4.33-3,13,13,0,0,1-2.68-3,9.14,9.14,0,0,1-1.38-4.28,16.78,16.78,0,0,1,5.46-13.77c.49-.46,1-.88,1.5-1.32l.59-.53c-.11-.23-.31-.23-.47-.27l-6.75-1.61c-2.56-.6-5.12-1.22-7.62-2.07a24.45,24.45,0,0,1-5.28-2.41A12.48,12.48,0,0,1,70.5,97,9.23,9.23,0,0,1,68.33,92a8.56,8.56,0,0,1,1.86-6.5A15.55,15.55,0,0,1,74.1,82a24.45,24.45,0,0,1,3.2-1.79,19.7,19.7,0,0,0,3.18-1.83,11.52,11.52,0,0,1,1-.64,6.66,6.66,0,0,1,.72-.33,1.49,1.49,0,0,1,1.24,0c.36.17.73.31,1.1.47a18,18,0,0,0,5.86,1.42,8.67,8.67,0,0,1,3.39,1.1c.33.17.4.49.14.72a15.62,15.62,0,0,1-5.41,3.59,14.26,14.26,0,0,1-3.84.67c-1.46.06-2.92.11-4.39.15a10.81,10.81,0,0,0-2,.21,6.63,6.63,0,0,0-4.79,3.85,4,4,0,0,0-.32,1.4,2.51,2.51,0,0,0,.85,2.22,8.19,8.19,0,0,0,1.36,1,18.08,18.08,0,0,0,3,1.29c2.21.76,4.48,1.33,6.75,1.91,3.24.84,6.49,1.64,9.67,2.71.83.28,1.66.58,2.48.88.23.07.45.16.64.23.21-.13.16-.3.16-.45q-.06-6-.13-11.91c0-.58,0-1.17,0-1.75q-.13-9.12-.26-18.23a2.48,2.48,0,0,0-.08-1c-.43-.06-.65.3-1,.47-.87.52-1.73,1.06-2.64,1.51a9.44,9.44,0,0,1-1.47.6,3.77,3.77,0,0,1-2,.14,13.12,13.12,0,0,0-1.42-.21,1.85,1.85,0,0,0-1.08.2c-.57.28-1.15.54-1.73.81a8.14,8.14,0,0,1-1.29.43,5.75,5.75,0,0,1-2.61,0l-1.09-.22a1.77,1.77,0,0,0-.94.06c-.63.23-1.26.42-1.89.63a7.86,7.86,0,0,1-3.79.28l-1.34-.19a6.7,6.7,0,0,0-2.14.18l-1.09.21a5.8,5.8,0,0,1-2.45-.17l-1.32-.3a2.64,2.64,0,0,0-1.5.05c-.61.19-1.23.35-1.83.54a9.37,9.37,0,0,1-1.72.35,3.26,3.26,0,0,1-2.56-.65.74.74,0,0,0-.79-.13c-1.49.48-3,.93-4.53,1.26a10.19,10.19,0,0,1-2.06.26,1.66,1.66,0,0,1-1.56-.78,1.09,1.09,0,0,0-1.33-.53,25.76,25.76,0,0,1-5.4.46,20.29,20.29,0,0,1-5.89-.92L36.86,72c-.13,0-.24-.12-.24-.28s.09-.24.23-.28l.54-.14a39,39,0,0,1,4.18-.64,30.93,30.93,0,0,0,5.87-1.07,57.92,57.92,0,0,0,8-3.33c3.16-1.6,6.2-3.42,9.21-5.27,2.18-1.34,4.35-2.69,6.54-4a34.41,34.41,0,0,1,4.69-2.38,16.71,16.71,0,0,1,2-.66,2.66,2.66,0,0,1,2.29.36,7.19,7.19,0,0,1,.84.61,21,21,0,0,0,3.88,2.65A41.9,41.9,0,0,0,97,62c.16,0,.32,0,.46,0,.15-.15.1-.32.1-.47,0-.88,0-1.76,0-2.64,0-.34,0-.69,0-1-.07-1.21-.07-1.2-.95-2-.42-.41-.83-.83-1.21-1.27a5.7,5.7,0,0,1,.11-7.16,6.35,6.35,0,0,1,4.59-2.28,5.09,5.09,0,0,1,2.11.34,6,6,0,0,1,3.87,5.3,5.5,5.5,0,0,1-1.73,4.47,12.06,12.06,0,0,1-1,1,1.18,1.18,0,0,0-.49.88c0,.29-.07.58-.08.87,0,1.2,0,2.4,0,3.6,0,.08,0,.16,0,.24s.09.25.25.24a2.73,2.73,0,0,0,.4,0,46.29,46.29,0,0,0,8.37-2.58,30.9,30.9,0,0,0,8-4.82,2.94,2.94,0,0,1,2.74-.64,11.07,11.07,0,0,1,2,.67A34.52,34.52,0,0,1,129,56.92c2.5,1.51,5,3,7.49,4.57a103,103,0,0,0,11.07,6,45.6,45.6,0,0,0,6.19,2.31,22.83,22.83,0,0,0,3.85.68,41.66,41.66,0,0,1,4.58.63c.41.1.82.22,1.23.33a.85.85,0,0,1,.22.09.29.29,0,0,1,.11.28c0,.12,0,.22-.15.25-.65.16-1.29.34-1.95.45a28,28,0,0,1-5.55.49,27.1,27.1,0,0,1-4.13-.38c-.16,0-.32,0-.48-.08a.59.59,0,0,0-.74.3,3.61,3.61,0,0,1-.25.3,2,2,0,0,1-1.47.71,9.08,9.08,0,0,1-2.38-.24,37.43,37.43,0,0,1-4.28-1.25.76.76,0,0,0-.86.14,3.15,3.15,0,0,1-2.41.63,12.42,12.42,0,0,1-2.25-.51c-.48-.14-1-.26-1.46-.41a2.54,2.54,0,0,0-1.34,0c-.67.14-1.35.28-2,.44a4.68,4.68,0,0,1-1.9,0c-.58-.1-1.16-.21-1.73-.33a4.5,4.5,0,0,0-1.51,0c-.39,0-.79.11-1.18.18a7.67,7.67,0,0,1-3.86-.29l-1.67-.55a2.4,2.4,0,0,0-1.33-.08c-.54.12-1.1.17-1.65.27a5,5,0,0,1-2.82-.32,14.73,14.73,0,0,1-1.8-.84,2.83,2.83,0,0,0-1.93-.29c-.34.05-.68.1-1,.17a3.68,3.68,0,0,1-1.89-.16,9.48,9.48,0,0,1-2-.91c-.81-.47-1.59-1-2.39-1.45C103.11,67.93,103,67.74,102.73,67.77Z"/><path class="cls-2" d="M98.55,128.18c-.13,0-.16,0-.17,0a24.75,24.75,0,0,1-4.57-2.91,9.15,9.15,0,0,1-1.79-2,5.34,5.34,0,0,1-.82-2.55,11.43,11.43,0,0,1,2-7.26,13.1,13.1,0,0,1,4.22-4.06,4.77,4.77,0,0,1,.63-.34.14.14,0,0,1,.23.11,2.61,2.61,0,0,1,0,.4c0,1.43.07,2.87.09,4.31q.11,6.7.19,13.42C98.56,127.59,98.55,127.88,98.55,128.18Z"/><path class="cls-2" d="M102.1,109a.44.44,0,0,1,.41.07,13.26,13.26,0,0,1,6.32,8.09,11,11,0,0,1,.24,4.2,4.39,4.39,0,0,1-.52,1.5,8.14,8.14,0,0,1-2.22,2.59,32,32,0,0,1-4.24,2.7c-.19.11-.33.05-.32-.24,0-.91,0-1.81,0-2.72,0-1.73.07-3.46.09-5.19l.18-10.63C102.08,109.26,102.09,109.13,102.1,109Z"/><path class="cls-2" d="M98.54,135.81c0,.92.12,1.87.14,2.82q.1,6.39.19,12.77l0,2.23c0,.11,0,.22,0,.32a.21.21,0,0,1-.07.13c-.07.07-.14,0-.21,0l-.12-.1a55.54,55.54,0,0,1-5.83-5.44c-.32-.35-.63-.72-.94-1.08a3.85,3.85,0,0,1-.92-3.34,8,8,0,0,1,1.85-4,13.52,13.52,0,0,1,2.4-2.2c1-.74,2.08-1.4,3.14-2A.31.31,0,0,1,98.54,135.81Z"/><path class="cls-2" d="M101.47,154.15c0-1.29,0-2.54,0-3.8q.06-4.78.13-9.58c0-1.6.08-3.19.13-4.79,0-.22.12-.29.3-.18a29.29,29.29,0,0,1,4.39,3,11.19,11.19,0,0,1,2.12,2.48,7.45,7.45,0,0,1,1,2.6,4.14,4.14,0,0,1-.55,3,9.65,9.65,0,0,1-1.49,1.87c-.75.75-1.52,1.49-2.3,2.21-1.07,1-2.15,1.92-3.22,2.87C101.83,154,101.73,154.15,101.47,154.15Z"/><path class="cls-4" d="M118.22,80.36a1.28,1.28,0,0,1-1.34,1.35,1.31,1.31,0,0,1-1.34-1.36A1.32,1.32,0,0,1,116.9,79,1.28,1.28,0,0,1,118.22,80.36Z"/><path class="cls-4" d="M82.59,81.7a1.35,1.35,0,0,1,0-2.69,1.33,1.33,0,0,1,1.4,1.33A1.3,1.3,0,0,1,82.59,81.7Z"/></svg>